{
  "accessors": [
    {
      "bufferView": 2,
      "componentType": 5126,
      "count": 37949,
      "max": [
        5.0213799476623535,
        9.304670333862305,
        2.7870900630950928
      ],
      "min": [
        -5.090219974517822,
        -17.65089988708496,
        -3.054500102996826
      ],
      "type": "VEC3"
    },
    {
      "bufferView": 2,
      "byteOffset": 455388,
      "componentType": 5126,
      "count": 37949,
      "max": [
        1.0,
        1.0,
        1.0
      ],
      "min": [
        -1.0,
        -1.0,
        -1.0
      ],
      "type": "VEC3"
    },
    {
      "bufferView": 1,
      "componentType": 5126,
      "count": 37949,
      "max": [
        0.9995399713516235,
        0.9996200203895569
      ],
      "min": [
        0.00039999998989515007,
        0.001100003719329834
      ],
      "type": "VEC2"
    },
    {
      "bufferView": 0,
      "componentType": 5125,
      "count": 60168,
      "type": "SCALAR"
    },
    {
      "bufferView": 2,
      "byteOffset": 910776,
      "componentType": 5126,
      "count": 762,
      "max": [
        0.806581974029541,
        -0.5218440294265747,
        0.06033480167388916
      ],
      "min": [
        -0.8754289746284485,
        -4.971560001373291,
        -0.766277015209198
      ],
      "type": "VEC3"
    },
    {
      "bufferView": 2,
      "byteOffset": 919920,
      "componentType": 5126,
      "count": 762,
      "max": [
        1.0,
        1.0,
        0.9376848340034485
      ],
      "min": [
        -1.0,
        -1.0,
        -0.9998763203620911
      ],
      "type": "VEC3"
    },
    {
      "bufferView": 0,
      "byteOffset": 240672,
      "componentType": 5125,
      "count": 984,
      "type": "SCALAR"
    },
    {
      "bufferView": 2,
      "byteOffset": 929064,
      "componentType": 5126,
      "count": 5368,
      "max": [
        3.5789198875427246,
        4.04164981842041,
        2.7870700359344482
      ],
      "min": [
        -3.6477699279785156,
        -18.454700469970703,
        -0.8617370128631592
      ],
      "type": "VEC3"
    },
    {
      "bufferView": 2,
      "byteOffset": 993480,
      "componentType": 5126,
      "count": 5368,
      "max": [
        1.0,
        1.0,
        1.0
      ],
      "min": [
        -1.0,
        -0.9999692440032959,
        -1.0
      ],
      "type": "VEC3"
    },
    {
      "bufferView": 1,
      "byteOffset": 303592,
      "componentType": 5126,
      "count": 5368,
      "max": [
        0.9976400136947632,
        0.9987900257110596
      ],
      "min": [
        0.12910999357700348,
        0.007589995861053467
      ],
      "type": "VEC2"
    },
    {
      "bufferView": 0,
      "byteOffset": 244608,
      "componentType": 5125,
      "count": 7962,
      "type": "SCALAR"
    },
    {
      "bufferView": 2,
      "byteOffset": 1057896,
      "componentType": 5126,
      "count": 19604,
      "max": [
        4.989920139312744,
        4.301559925079346,
        2.1805899143218994
      ],
      "min": [
        -5.081709861755371,
        -15.474100112915039,
        0.015095899812877178
      ],
      "type": "VEC3"
    },
    {
      "bufferView": 2,
      "byteOffset": 1293144,
      "componentType": 5126,
      "count": 19604,
      "max": [
        1.0,
        1.0,
        1.0
      ],
      "min": [
        -1.0,
        -1.0,
        -1.0
      ],
      "type": "VEC3"
    },
    {
      "bufferView": 1,
      "byteOffset": 346536,
      "componentType": 5126,
      "count": 19604,
      "max": [
        2.9802000522613525,
        1.6412999629974365
      ],
      "min": [
        0.0006000000284984708,
        -1.493299961090088
      ],
      "type": "VEC2"
    },
    {
      "bufferView": 0,
      "byteOffset": 276456,
      "componentType": 5125,
      "count": 61473,
      "type": "SCALAR"
    },
    {
      "bufferView": 2,
      "byteOffset": 1528392,
      "componentType": 5126,
      "count": 1968,
      "max": [
        4.849689960479736,
        5.141419887542725,
        2.99603009223938
      ],
      "min": [
        -4.942460060119629,
        -16.31399917602539,
        -0.800678014755249
      ],
      "type": "VEC3"
    },
    {
      "bufferView": 2,
      "byteOffset": 1552008,
      "componentType": 5126,
      "count": 1968,
      "max": [
        0.8575825095176697,
        0.9992514252662659,
        1.0
      ],
      "min": [
        -0.8575804233551025,
        -0.9992486834526062,
        -1.0
      ],
      "type": "VEC3"
    },
    {
      "bufferView": 1,
      "byteOffset": 503368,
      "componentType": 5126,
      "count": 1968,
      "max": [
        1.016700029373169,
        -0.0004999637603759766
      ],
      "min": [
        -0.016699999570846558,
        -0.999500036239624
      ],
      "type": "VEC2"
    },
    {
      "bufferView": 0,
      "byteOffset": 522348,
      "componentType": 5125,
      "count": 10080,
      "type": "SCALAR"
    },
    {
      "bufferView": 2,
      "byteOffset": 1575624,
      "componentType": 5126,
      "count": 3288,
      "max": [
        5.053410053253174,
        5.078609943389893,
        2.9518799781799316
      ],
      "min": [
        -5.146180152893066,
        -16.25119972229004,
        -0.7565270066261292
      ],
      "type": "VEC3"
    },
    {
      "bufferView": 2,
      "byteOffset": 1615080,
      "componentType": 5126,
      "count": 3288,
      "max": [
        0.9999691843986511,
        0.615066647529602,
        0.6539197564125061
      ],
      "min": [
        -0.9999691843986511,
        -0.6150678396224976,
        -0.6540878415107727
      ],
      "type": "VEC3"
    },
    {
      "bufferView": 1,
      "byteOffset": 519112,
      "componentType": 5126,
      "count": 3288,
      "max": [
        0.9945999979972839,
        -0.0048999786376953125
      ],
      "min": [
        0.005400000140070915,
        -0.9950000047683716
      ],
      "type": "VEC2"
    },
    {
      "bufferView": 0,
      "byteOffset": 562668,
      "componentType": 5125,
      "count": 17064,
      "type": "SCALAR"
    }
  ],
  "asset": {
    "extras": {
      "author": "Casacade Models (https://sketchfab.com/CasacadeOperations)",
      "license": "CC-BY-4.0 (http://creativecommons.org/licenses/by/4.0/)",
      "source": "https://sketchfab.com/3d-models/red-bull-racing-rb6-7ba1ee5ca7544e46b6a652b4186f11b6",
      "title": "Red Bull Racing RB6"
    },
    "generator": "Sketchfab-13.74.0",
    "version": "2.0"
  },
  "bufferViews": [
    {
      "buffer": 0,
      "byteLength": 630924,
      "name": "floatBufferViews",
      "target": 34963
    },
    {
      "buffer": 0,
      "byteLength": 545416,
      "byteOffset": 630924,
      "byteStride": 8,
      "name": "floatBufferViews",
      "target": 34962
    },
    {
      "buffer": 0,
      "byteLength": 1654536,
      "byteOffset": 1176340,
      "byteStride": 12,
      "name": "floatBufferViews",
      "target": 34962
    }
  ],
  "buffers": [
    {
      "byteLength": 2830876,
      "uri": "scene.bin"
    }
  ],
  "images": [
    {
      "uri": "textures/Body21Mtl_002_baseColor.jpeg"
    },
    {
      "uri": "textures/Chassis1Mtl_002_baseColor.jpeg"
    },
    {
      "uri": "textures/Meshpart1Mtl_002_baseColor.jpeg"
    },
    {
      "uri": "textures/Meshpart3Mtl_002_baseColor.jpeg"
    },
    {
      "uri": "textures/Meshpart4Mtl_002_baseColor.jpeg"
    }
  ],
  "materials": [
    {
      "doubleSided": true,
      "name": "Body21Mtl_002",
      "pbrMetallicRoughness": {
        "baseColorTexture": {
          "index": 0
        },
        "metallicFactor": 0.0,
        "roughnessFactor": 0.0
      }
    },
    {
      "doubleSided": true,
      "name": "Window1Mtl_002",
      "pbrMetallicRoughness": {
        "baseColorFactor": [
          0.373615,
          0.368591,
          0.383775,
          1.0
        ],
        "metallicFactor": 0.0,
        "roughnessFactor": 0.0
      }
    },
    {
      "doubleSided": true,
      "name": "Chassis1Mtl_002",
      "pbrMetallicRoughness": {
        "baseColorTexture": {
          "index": 1
        },
        "metallicFactor": 0.0,
        "roughnessFactor": 0.0
      }
    },
    {
      "doubleSided": true,
      "name": "Meshpart1Mtl_002",
      "pbrMetallicRoughness": {
        "baseColorTexture": {
          "index": 2
        },
        "metallicFactor": 0.0,
        "roughnessFactor": 0.473756
      }
    },
    {
      "doubleSided": true,
      "name": "Meshpart3Mtl_002",
      "pbrMetallicRoughness": {
        "baseColorTexture": {
          "index": 3
        },
        "metallicFactor": 0.0
      }
    },
    {
      "doubleSided": true,
      "name": "Meshpart4Mtl_002",
      "pbrMetallicRoughness": {
        "baseColorTexture": {
          "index": 4
        },
        "metallicFactor": 0.0
      }
    }
  ],
  "meshes": [
    {
      "name": "Object_0",
      "primitives": [
        {
          "attributes": {
            "NORMAL": 1,
            "POSITION": 0,
            "TEXCOORD_0": 2
          },
          "indices": 3,
          "material": 0,
          "mode": 4
        }
      ]
    },
    {
      "name": "Object_1",
      "primitives": [
        {
          "attributes": {
            "NORMAL": 5,
            "POSITION": 4
          },
          "indices": 6,
          "material": 1,
          "mode": 4
        }
      ]
    },
    {
      "name": "Object_2",
      "primitives": [
        {
          "attributes": {
            "NORMAL": 8,
            "POSITION": 7,
            "TEXCOORD_0": 9
          },
          "indices": 10,
          "material": 2,
          "mode": 4
        }
      ]
    },
    {
      "name": "Object_3",
      "primitives": [
        {
          "attributes": {
            "NORMAL": 12,
            "POSITION": 11,
            "TEXCOORD_0": 13
          },
          "indices": 14,
          "material": 3,
          "mode": 4
        }
      ]
    },
    {
      "name": "Object_4",
      "primitives": [
        {
          "attributes": {
            "NORMAL": 16,
            "POSITION": 15,
            "TEXCOORD_0": 17
          },
          "indices": 18,
          "material": 4,
          "mode": 4
        }
      ]
    },
    {
      "name": "Object_5",
      "primitives": [
        {
          "attributes": {
            "NORMAL": 20,
            "POSITION": 19,
            "TEXCOORD_0": 21
          },
          "indices": 22,
          "material": 5,
          "mode": 4
        }
      ]
    }
  ],
  "nodes": [
    {
      "children": [
        1
      ],
      "matrix": [
        1.0,
        0.0,
        0.0,
        0.0,
        0.0,
        2.220446049250313e-16,
        -1.0,
        0.0,
        0.0,
        1.0,
        2.220446049250313e-16,
        0.0,
        0.0,
        0.0,
        0.0,
        1.0
      ],
      "name": "Sketchfab_model"
    },
    {
      "children": [
        2
      ],
      "matrix": [
        0.009999999776482582,
        0.0,
        0.0,
        0.0,
        0.0,
        2.2204459996194763e-18,
        0.009999999776482582,
        0.0,
        0.0,
        -0.009999999776482582,
        2.2204459996194763e-18,
        0.0,
        0.0,
        0.0,
        0.0,
        1.0
      ],
      "name": "USDRoot"
    },
    {
      "children": [
        3
      ],
      "name": "scene"
    },
    {
      "children": [
        4
      ],
      "matrix": [
        49.582401275634766,
        0.0,
        0.0,
        0.0,
        0.0,
        49.582401275634766,
        0.0,
        0.0,
        0.0,
        0.0,
        49.582401275634766,
        0.0,
        0.0,
        0.0,
        0.0,
        1.0
      ],
      "name": "Meshes"
    },
    {
      "children": [
        5
      ],
      "matrix": [
        1.0,
        0.0,
        0.0,
        0.0,
        0.0,
        2.220446049250313e-16,
        -1.0,
        0.0,
        0.0,
        1.0,
        2.220446049250313e-16,
        0.0,
        0.0,
        0.0,
        0.0,
        1.0
      ],
      "name": "Sketchfab_model"
    },
    {
      "children": [
        6
      ],
      "name": "root"
    },
    {
      "children": [
        7
      ],
      "matrix": [
        1.0,
        0.0,
        0.0,
        0.0,
        0.0,
        2.220446049250313e-16,
        1.0,
        0.0,
        0.0,
        -1.0,
        2.220446049250313e-16,
        0.0,
        0.0,
        0.0,
        0.0,
        1.0
      ],
      "name": "GLTF_SceneRootNode"
    },
    {
      "children": [
        8,
        10,
        12,
        14,
        16,
        18
      ],
      "matrix": [
        1.0,
        0.0,
        0.0,
        0.0,
        0.0,
        -1.6858739115832577e-07,
        1.0,
        0.0,
        0.0,
        -1.0,
        -1.6858739115832577e-07,
        0.0,
        0.0,
        0.0,
        0.0,
        1.0
      ],
      "name": "RedBull_RB6_1_2"
    },
    {
      "children": [
        9
      ],
      "name": "Object_4"
    },
    {
      "mesh": 0,
      "name": "Object_0"
    },
    {
      "children": [
        11
      ],
      "name": "Object_5"
    },
    {
      "mesh": 1,
      "name": "Object_1"
    },
    {
      "children": [
        13
      ],
      "name": "Object_6"
    },
    {
      "mesh": 2,
      "name": "Object_2"
    },
    {
      "children": [
        15
      ],
      "name": "Object_7"
    },
    {
      "mesh": 3,
      "name": "Object_3"
    },
    {
      "children": [
        17
      ],
      "name": "Object_8"
    },
    {
      "mesh": 4,
      "name": "Object_4"
    },
    {
      "children": [
        19
      ],
      "name": "Object_9"
    },
    {
      "mesh": 5,
      "name": "Object_5"
    }
  ],
  "samplers": [
    {
      "magFilter": 9729,
      "minFilter": 9987,
      "wrapS": 10497,
      "wrapT": 10497
    }
  ],
  "scene": 0,
  "scenes": [
    {
      "name": "Sketchfab_Scene",
      "nodes": [
        0
      ]
    }
  ],
  "textures": [
    {
      "sampler": 0,
      "source": 0
    },
    {
      "sampler": 0,
      "source": 1
    },
    {
      "sampler": 0,
      "source": 2
    },
    {
      "sampler": 0,
      "source": 3
    },
    {
      "sampler": 0,
      "source": 4
    }
  ]
}
